HIERARCHY
ROOT Hips
{
	OFFSET 0.000000 0.000000 0.000000
	CHANNELS 6 Xposition Yposition Zposition Zrotation Yrotation Xrotation 
	JOINT LHipJoint
	{
		OFFSET 0.000000 0.000000 0.000000
		CHANNELS 3 Zrotation Yrotation Xrotation
		JOINT LeftUpLeg
		{
			OFFSET 1.363060 -1.794630 0.839290
			CHANNELS 3 Zrotation Yrotation Xrotation
			JOINT LeftLeg
			{
				OFFSET 2.448110 -6.726130 0.000000
				CHANNELS 3 Zrotation Yrotation Xrotation
				JOINT LeftFoot
				{
					OFFSET 2.562200 -7.039590 0.000000
					CHANNELS 3 Zrotation Yrotation Xrotation
					JOINT LeftToeBase
					{
						OFFSET 0.157640 -0.433110 2.322550
						CHANNELS 3 Zrotation Yrotation Xrotation
						End Site
						{
							OFFSET 0.000000 0.000000 0.000000
						}
					}
				}
			}
		}
	}
	JOINT RHipJoint
	{
		OFFSET 0.000000 0.000000 0.000000
		CHANNELS 3 Zrotation Yrotation Xrotation
		JOINT RightUpLeg
		{
			OFFSET -1.305520 -1.794630 0.839290
			CHANNELS 3 Zrotation Yrotation Xrotation
			JOINT RightLeg
			{
				OFFSET -2.542530 -6.985550 0.000000
				CHANNELS 3 Zrotation Yrotation Xrotation
				JOINT RightFoot
				{
					OFFSET -2.568260 -7.056230 0.000000
					CHANNELS 3 Zrotation Yrotation Xrotation
					JOINT RightToeBase
					{
						OFFSET -0.164730 -0.452590 2.363150
						CHANNELS 3 Zrotation Yrotation Xrotation
						End Site
						{
							OFFSET 0.000000 0.000000 0.000000
						}
					}
				}
			}
		}
	}
	JOINT LowerBack
	{
		OFFSET 0.000000 0.000000 0.000000
		CHANNELS 3 Zrotation Yrotation Xrotation
		JOINT Spine
		{
			OFFSET 0.028270 2.035590 -0.193380
			CHANNELS 3 Zrotation Yrotation Xrotation
			JOINT Spine1
			{
				OFFSET 0.056720 2.048850 -0.042750
				CHANNELS 3 Zrotation Yrotation Xrotation
				JOINT Neck
				{
					OFFSET 0.000000 0.000000 0.000000
					CHANNELS 3 Zrotation Yrotation Xrotation
					JOINT Neck1
					{
						OFFSET -0.054170 1.746240 0.172020
						CHANNELS 3 Zrotation Yrotation Xrotation
						JOINT Head
						{
							OFFSET 0.104070 1.761360 -0.123970
							CHANNELS 3 Zrotation Yrotation Xrotation
							End Site
							{
								OFFSET 0.000000 0.000000 0.000000
							}
						}
					}
				}
				JOINT LeftShoulder
				{
					OFFSET 0.000000 0.000000 0.000000
					CHANNELS 3 Zrotation Yrotation Xrotation
					JOINT LeftArm
					{
						OFFSET 3.362410 1.200890 -0.311210
						CHANNELS 3 Zrotation Yrotation Xrotation
						JOINT LeftForeArm
						{
							OFFSET 4.983000 -0.000000 -0.000000
							CHANNELS 3 Zrotation Yrotation Xrotation
							JOINT LeftHand
							{
								OFFSET 3.483560 -0.000000 -0.000000
								CHANNELS 3 Zrotation Yrotation Xrotation
								JOINT LeftFingerBase
								{
									OFFSET 0.000000 0.000000 0.000000
									CHANNELS 3 Zrotation Yrotation Xrotation
									JOINT LeftHandIndex1
									{
										OFFSET 0.715260 -0.000000 -0.000000
										CHANNELS 3 Zrotation Yrotation Xrotation
										End Site
										{
											OFFSET 0.000000 0.000000 0.000000
										}
									}
								}
								JOINT LThumb
								{
									OFFSET 0.000000 0.000000 0.000000
									CHANNELS 3 Zrotation Yrotation Xrotation
									End Site
									{
										OFFSET 0.000000 0.000000 0.000000
									}
								}
							}
						}
					}
				}
				JOINT RightShoulder
				{
					OFFSET 0.000000 0.000000 0.000000
					CHANNELS 3 Zrotation Yrotation Xrotation
					JOINT RightArm
					{
						OFFSET -3.136600 1.374050 -0.404650
						CHANNELS 3 Zrotation Yrotation Xrotation
						JOINT RightForeArm
						{
							OFFSET -5.241900 -0.000000 -0.000000
							CHANNELS 3 Zrotation Yrotation Xrotation
							JOINT RightHand
							{
								OFFSET -3.444170 -0.000000 -0.000000
								CHANNELS 3 Zrotation Yrotation Xrotation
								JOINT RightFingerBase
								{
									OFFSET 0.000000 0.000000 0.000000
									CHANNELS 3 Zrotation Yrotation Xrotation
									JOINT RightHandIndex1
									{
										OFFSET -0.622530 -0.000000 -0.000000
										CHANNELS 3 Zrotation Yrotation Xrotation
										End Site
										{
											OFFSET 0.000000 0.000000 0.000000
										}
									}
								}
								JOINT RThumb
								{
									OFFSET 0.000000 0.000000 0.000000
									CHANNELS 3 Zrotation Yrotation Xrotation
									End Site
									{
										OFFSET 0.000000 0.000000 0.000000
									}
								}
							}
						}
					}
				}
			}
		}
	}
}
MOTION
Frames: 4
Frame Time: 0.008333
10.079181 18.229978 -10.883117 -1.752192 -7.304853 -0.847249 -5.266943 0.258490 -0.012625 -9.204260 -5.000381 -27.140448 3.799654 14.063124 40.463365 -3.191338 11.737274 10.679265 0.320500 -3.639200 -10.063700 5.112265 -2.763374 4.548481 18.482185 8.442680 -4.394513 0.779767 -6.574052 22.808037 -1.019837 0.827962 -0.472201 -0.002400 -0.314100 0.863100 4.149883 1.305886 6.692350 1.151021 2.027755 -2.170808 -1.319495 1.284599 0.561115 -3.401627 3.106854 -10.475748 1.619890 4.142252 0.428860 -0.358500 1.916700 1.760800 -4.078155 -2.157421 0.098929 -86.135698 12.676073 5.465479 6.664519 -16.394864 -1.689120 -0.829614 -0.651460 -13.186978 22.403221 20.148772 8.594000 -7.125000 0.000000 0.000000 -5.289500 52.045500 -0.919600 7.254413 2.572784 0.080293 70.802412 10.248134 38.599637 -19.125081 31.377119 -6.085696 0.594870 -0.653247 -14.760001 -22.826154 14.220026 -6.350600 7.125000 0.000000 0.000000 2.926500 -13.714300 2.152100
10.083915 18.230093 -10.790118 -1.747158 -7.454895 -0.844197 -5.359020 0.224473 -0.076719 -8.985795 -5.162268 -27.121823 3.368207 13.686280 38.961509 -3.298398 12.081975 10.807373 0.356291 -3.830664 -10.601269 5.134661 -2.810084 4.653534 18.379814 8.268636 -3.980729 0.858776 -6.403324 22.352113 -1.046263 0.936911 -0.118361 -0.002128 -0.297728 0.818117 4.181341 1.341067 6.717961 1.141262 2.069911 -2.155175 -1.350426 1.317247 0.574996 -3.320289 3.108205 -10.375599 1.452472 4.132775 0.398679 -0.442103 1.905386 1.730829 -4.069489 -2.148945 0.094974 -86.242661 12.966283 5.488397 6.730090 -16.501113 -1.707734 -0.824024 -0.658629 -13.529268 22.426556 20.213837 8.629736 -7.125000 0.000000 0.000000 -5.286726 52.120617 -0.928901 7.253762 2.577805 0.095482 70.506630 10.636713 38.971679 -19.709540 31.953063 -6.367733 0.594722 -0.646452 -15.142510 -22.868221 14.152115 -6.332977 7.125000 0.000000 0.000000 2.895931 -13.786154 2.125230
10.088751 18.230619 -10.696802 -1.784426 -7.600670 -0.836978 -5.448027 0.192422 -0.139518 -8.724885 -5.330121 -27.091301 2.941528 13.306702 37.457275 -3.410537 12.439315 10.935713 0.396800 -4.041090 -11.192832 5.156172 -2.855747 4.755402 18.323493 8.101243 -3.558212 0.936519 -6.233112 21.900762 -1.071262 1.044236 0.213540 -0.002102 -0.295704 0.812559 4.261394 1.373456 6.747290 1.135824 2.112178 -2.140556 -1.393509 1.350851 0.583768 -3.252250 3.111381 -10.256762 1.303100 4.124777 0.347153 -0.515433 1.895557 1.687231 -4.061101 -2.140884 0.091395 -86.344573 13.253301 5.508401 6.795069 -16.604823 -1.725460 -0.817972 -0.664661 -13.869465 22.429022 20.239049 8.640774 -7.125000 0.000000 0.000000 -5.293942 52.149253 -0.933853 7.252444 2.582428 0.110889 70.223402 11.023974 39.317008 -20.288590 32.522062 -6.649969 0.595169 -0.641790 -15.490985 -22.953892 14.112764 -6.341511 7.125000 0.000000 0.000000 2.837605 -13.819495 2.080118
10.094120 18.233274 -10.601840 -2.041262 -7.724294 -0.808129 -5.521100 0.170573 -0.195590 -8.243660 -5.528937 -26.999034 2.539595 12.912940 35.940697 -3.549036 12.862263 11.065258 0.461800 -4.349936 -12.064648 5.173091 -2.895976 4.840747 18.506193 7.968372 -3.090363 1.007690 -6.065580 21.473147 -1.088854 1.143128 0.431561 -0.003353 -0.368156 1.011638 4.593677 1.391357 6.795918 1.152812 2.155019 -2.131193 -1.499665 1.389417 0.566023 -3.253241 3.124029 -10.040930 1.247391 4.124456 0.184840 -0.535450 1.893436 1.572896 -4.054161 -2.134981 0.089764 -86.420261 13.523752 5.513278 6.856983 -16.695352 -1.738570 -0.809524 -0.664790 -14.198799 22.323172 20.057405 8.523610 -7.125000 0.000000 0.000000 -5.353013 51.936630 -0.916230 7.247660 2.584986 0.127427 70.005333 11.404394 39.523691 -20.839569 33.055014 -6.933231 0.598703 -0.648199 -15.662807 -23.265891 14.221645 -6.485816 7.125000 0.000000 0.000000 2.635208 -13.652943 1.940328
